<svg width="61" height="61" viewBox="0 0 61 61" fill="none" xmlns="http://www.w3.org/2000/svg">
<path d="M19.8254 39.1769C20.4548 37.935 21.5316 36.4589 23.3533 35.3855C26.5915 33.478 29.8919 34.195 31.0575 34.4487C34.3413 35.1626 36.2929 37.0876 37 37.8651C36.3706 38.9283 35.0662 38.1887 32.0278 40.5995C30.4736 41.8321 28.4532 44.7442 25.1395 44.4217C23.1613 44.2286 21.6215 43.4869 20.5547 42.7741M18.9994 41.4963V51.4939M18.9484 41.486C15.7923 38.088 11.1565 40.1886 7.16004 39.1614M15.0419 39.5723L12.3254 40.9827M11.2675 39.4696L10.3794 38.3397M18.9273 41.524C22.5907 41.524 27.1422 37.7234 30.6945 37.7234M25.588 39.2642L25.9044 37.6063M27.0311 38.7506L29.2514 39.2642M18.9994 41.4973C18.8796 40.9118 18.1047 37.4224 14.6467 35.3865C11.4085 33.479 8.27016 35.67 6.71599 36.2863C3.61544 37.5159 1.70714 37.0886 1 37.8662C1.62944 38.9293 3.10145 41.0731 5.8823 42.658C7.05902 43.3288 9.54679 44.7453 12.8605 44.4227C16.2563 44.092 18.3578 42.1454 18.9983 41.4983L18.9994 41.4973ZM34.5877 59.7844C34.5877 57.4126 32.5096 55.4897 29.9463 55.4897C28.9738 55.4897 28.0724 55.767 27.3275 56.2395C25.8911 53.4343 22.8038 51.4929 19.2259 51.4929C16.4673 51.4929 14.0017 52.6464 12.3576 54.4604C11.5583 54.1235 10.6736 53.9304 9.73773 53.9304C6.24419 53.9304 3.41117 56.5508 3.41117 59.7844H34.5877Z" stroke="#84B23B" stroke-width="1.5" stroke-linecap="round" stroke-linejoin="round"/>
</svg>
