<svg width="61" height="62" viewBox="0 0 61 62" fill="none" xmlns="http://www.w3.org/2000/svg">
<path d="M21 44.338L9.08694 37.5667M21 44.338L32.9131 37.5667M21 44.338V58.0375M9.08694 37.5667L21 30.7955L32.9131 37.5667M9.08694 37.5667L9.36345 51.2662L21 58.0375M32.9131 37.5667L32.6366 51.2662L21 58.0375M26.6511 34.1329L14.9065 40.809M28.5699 50.1679L23.5465 53.0912M28.6317 47.1237L23.5465 50.0843M35.201 35.7456V38.1995L41 33.2699L35.201 28.3403V30.7942H21M6.79898 53.0873V50.6334L1 55.563L6.79898 60.4926V58.0387H21" stroke="#84B23B" stroke-width="1.5" stroke-linecap="round" stroke-linejoin="round"/>
</svg>
