<svg width="125" height="38" viewBox="0 0 125 38" fill="none" xmlns="http://www.w3.org/2000/svg">
<g clip-path="url(#clip0_4766_2013)">
<path d="M120.37 0.799805H4.62963C2.07276 0.799805 0 2.87256 0 5.42943V33.2072C0 35.7641 2.07276 37.8368 4.62963 37.8368H120.37C122.927 37.8368 125 35.7641 125 33.2072V5.42943C125 2.87256 122.927 0.799805 120.37 0.799805Z" fill="black"/>
<path d="M120.37 1.54055C122.519 1.54055 124.259 3.28129 124.259 5.42943V33.2072C124.259 35.3554 122.519 37.0961 120.37 37.0961H4.62963C2.48148 37.0961 0.740741 35.3554 0.740741 33.2072V5.42943C0.740741 3.28129 2.48148 1.54055 4.62963 1.54055H120.37ZM120.37 0.799805H4.62963C2.08333 0.799805 0 2.88314 0 5.42943V33.2072C0 35.7535 2.08333 37.8368 4.62963 37.8368H120.37C122.917 37.8368 125 35.7535 125 33.2072V5.42943C125 2.88314 122.917 0.799805 120.37 0.799805Z" fill="#A6A6A6"/>
<path d="M25.981 18.6238C25.9995 16.8553 26.9347 15.2164 28.4439 14.2905C27.4902 12.9201 25.9439 12.0868 24.2772 12.0405C22.5272 11.8553 20.8235 13.0868 19.9254 13.0868C19.0272 13.0868 17.6384 12.059 16.1569 12.0868C14.2032 12.1516 12.4347 13.2349 11.481 14.9386C9.46243 18.4386 10.9717 23.5775 12.9069 26.4016C13.8791 27.7905 15.0087 29.3368 16.4902 29.2812C17.9347 29.2256 18.481 28.3553 20.231 28.3553C21.981 28.3553 22.4717 29.2812 23.981 29.2442C25.5365 29.2164 26.518 27.8553 27.4532 26.4571C28.1476 25.4664 28.6847 24.383 29.0365 23.2256C27.1939 22.4479 25.9902 20.633 25.9902 18.633L25.981 18.6238Z" fill="white"/>
<path d="M23.1282 10.1794C23.98 9.16088 24.3967 7.85532 24.2949 6.53125C22.9986 6.67014 21.8041 7.29051 20.943 8.26273C20.0911 9.22569 19.6652 10.4942 19.7486 11.772C21.0634 11.7812 22.3041 11.1979 23.1282 10.1701V10.1794Z" fill="white"/>
<path d="M44.2964 25.7716H39.352L38.1668 29.2808H36.0742L40.7594 16.3086H42.9353L47.6205 29.2808H45.4909L44.3057 25.7716H44.2964ZM39.8613 24.1512H43.7779L41.8427 18.4567H41.7872L39.852 24.1512H39.8613Z" fill="white"/>
<path d="M57.7216 24.5497C57.7216 27.4849 56.1475 29.3738 53.7772 29.3738C52.5457 29.4386 51.3975 28.7997 50.8049 27.7163H50.7587V32.4015H48.8142V19.8182H50.6938V21.3923H50.7309C51.3512 20.3275 52.5087 19.6793 53.7401 19.7164C56.1383 19.7164 57.7216 21.6145 57.7216 24.5404V24.5497ZM55.7309 24.5497C55.7309 22.633 54.7401 21.3738 53.2309 21.3738C51.7216 21.3738 50.7494 22.6608 50.7494 24.5497C50.7494 26.4386 51.7494 27.7349 53.2309 27.7349C54.7124 27.7349 55.7309 26.4849 55.7309 24.5497Z" fill="white"/>
<path d="M68.1379 24.5497C68.1379 27.4849 66.5638 29.3738 64.1934 29.3738C62.962 29.4386 61.8138 28.7997 61.2212 27.7163H61.1749V32.4015H59.2305V19.8182H61.1101V21.3923H61.1471C61.7675 20.3275 62.9249 19.6793 64.1564 19.7164C66.5545 19.7164 68.1379 21.6145 68.1379 24.5404V24.5497ZM66.1379 24.5497C66.1379 22.633 65.1471 21.3738 63.6379 21.3738C62.1286 21.3738 61.1564 22.6608 61.1564 24.5497C61.1564 26.4386 62.1564 27.7349 63.6379 27.7349C65.1194 27.7349 66.1379 26.4849 66.1379 24.5497Z" fill="white"/>
<path d="M75.0181 25.661C75.1662 26.948 76.407 27.7906 78.1199 27.7906C79.8329 27.7906 80.9348 26.948 80.9348 25.7906C80.9348 24.7814 80.2218 24.1795 78.5459 23.7721L76.8607 23.3647C74.481 22.7906 73.3699 21.6795 73.3699 19.8647C73.3699 17.624 75.3236 16.0869 78.0922 16.0869C80.8607 16.0869 82.7125 17.624 82.7773 19.8647H80.8144C80.694 18.5684 79.6292 17.7906 78.0644 17.7906C76.4996 17.7906 75.4347 18.5777 75.4347 19.7351C75.4347 20.6517 76.1199 21.1888 77.7866 21.6054L79.2125 21.9573C81.8699 22.5869 82.981 23.6517 82.981 25.5499C82.981 27.9758 81.0459 29.4943 77.9718 29.4943C75.0922 29.4943 73.157 28.0128 73.0273 25.661H75.0181Z" fill="white"/>
<path d="M87.1659 17.5771V19.8179H88.9622V21.3549H87.1659V26.5679C87.1659 27.3734 87.527 27.7531 88.314 27.7531C88.527 27.7531 88.7399 27.7346 88.9529 27.7068V29.2346C88.6011 29.2994 88.2399 29.3271 87.8788 29.3271C85.9622 29.3271 85.2214 28.6049 85.2214 26.7716V21.3549H83.8418V19.8179H85.2214V17.5771H87.1751H87.1659Z" fill="white"/>
<path d="M90.0078 24.5496C90.0078 21.5774 91.7578 19.707 94.4893 19.707C97.2208 19.707 98.98 21.5774 98.98 24.5496C98.98 27.5218 97.2486 29.3922 94.4893 29.3922C91.73 29.3922 90.0078 27.5311 90.0078 24.5496ZM96.9986 24.5496C96.9986 22.5126 96.0634 21.2996 94.4893 21.2996C92.9152 21.2996 91.98 22.5126 91.98 24.5496C91.98 26.5867 92.9152 27.7904 94.4893 27.7904C96.0634 27.7904 96.9986 26.5959 96.9986 24.5496Z" fill="white"/>
<path d="M100.582 19.8181H102.434V21.4292H102.48C102.739 20.3921 103.684 19.6792 104.758 19.7162C104.98 19.7162 105.202 19.744 105.425 19.7903V21.6051C105.138 21.5218 104.851 21.4755 104.554 21.4847C103.471 21.4384 102.564 22.281 102.517 23.3644C102.517 23.4662 102.517 23.5681 102.526 23.6607V29.2718H100.582V19.8181Z" fill="white"/>
<path d="M114.369 26.4941C114.11 28.207 112.434 29.3922 110.295 29.3922C107.545 29.3922 105.832 27.5496 105.832 24.5959C105.832 21.6422 107.545 19.707 110.212 19.707C112.878 19.707 114.471 21.5033 114.471 24.3737V25.0404H107.795V25.1607C107.675 26.5126 108.675 27.707 110.036 27.8274C110.138 27.8274 110.239 27.8367 110.341 27.8274C111.286 27.92 112.175 27.3737 112.526 26.4941H114.369ZM107.804 23.6793H112.536C112.61 22.4293 111.647 21.3552 110.388 21.2811C110.332 21.2811 110.267 21.2811 110.212 21.2811C108.888 21.2811 107.814 22.3367 107.804 23.6607C107.804 23.6607 107.804 23.67 107.804 23.6793Z" fill="white"/>
<path d="M39.6206 6.54063C41.1391 6.42952 42.4632 7.57767 42.565 9.09619C42.5743 9.28138 42.565 9.4573 42.5465 9.64249C42.5465 11.6332 41.4724 12.7814 39.6113 12.7814H37.3613V6.54989H39.6113L39.6206 6.54063ZM38.3336 11.8925H39.5095C40.5928 11.9573 41.5187 11.1332 41.5836 10.0499C41.5836 9.911 41.5836 9.78138 41.565 9.65175C41.7132 8.57767 40.9632 7.58693 39.8891 7.43878C39.7687 7.42026 39.6391 7.42026 39.5095 7.42026H38.3336V11.8925Z" fill="white"/>
<path d="M43.6487 10.4201C43.5283 9.19792 44.4264 8.10532 45.6579 7.99421C46.8801 7.87384 47.9727 8.77199 48.0838 10.0035C48.0931 10.1424 48.0931 10.2905 48.0838 10.4294C48.2042 11.6516 47.3061 12.7442 46.0838 12.8646C44.8616 12.985 43.769 12.0868 43.6487 10.8646C43.6301 10.7164 43.6301 10.5775 43.6487 10.4294V10.4201ZM47.1301 10.4201C47.1301 9.40162 46.6764 8.79977 45.8709 8.79977C45.0653 8.79977 44.6116 9.39236 44.6116 10.4201C44.6116 11.4479 45.0653 12.0405 45.8709 12.0405C46.6764 12.0405 47.1301 11.4479 47.1301 10.4201Z" fill="white"/>
<path d="M53.9815 12.7721H53.0185L52.0463 9.3091H51.9722L51 12.7721H50.0463L48.75 8.06836H49.6944L50.537 11.661H50.6019L51.5648 8.06836H52.4537L53.4167 11.661H53.4907L54.3333 8.06836H55.2593L53.9722 12.7721H53.9815Z" fill="white"/>
<path d="M56.3613 8.06886H57.2595V8.81886H57.3243C57.565 8.27256 58.1298 7.92997 58.7317 7.97627C59.5743 7.91145 60.3058 8.54108 60.3706 9.38367C60.3706 9.49479 60.3706 9.6059 60.3613 9.72627V12.7726H59.4354V9.95775C59.4354 9.19849 59.1113 8.82812 58.4169 8.82812C57.8243 8.80034 57.315 9.2633 57.2873 9.8559C57.2873 9.91145 57.2873 9.96701 57.2873 10.0226V12.7726H56.3613V8.06886Z" fill="white"/>
<path d="M61.834 6.23535H62.7599V12.7724H61.834V6.23535Z" fill="white"/>
<path d="M64.0549 10.4201C63.9345 9.19792 64.8327 8.10532 66.0642 7.99421C67.2864 7.87384 68.379 8.77199 68.4901 10.0035C68.4993 10.1424 68.4993 10.2905 68.4901 10.4294C68.6105 11.6516 67.7123 12.7442 66.4901 12.8646C65.2679 12.985 64.1753 12.0868 64.0549 10.8646C64.0364 10.7257 64.0364 10.5775 64.0549 10.4294V10.4201ZM67.5364 10.4201C67.5364 9.40162 67.0827 8.79977 66.2771 8.79977C65.4716 8.79977 65.0179 9.39236 65.0179 10.4201C65.0179 11.4479 65.4716 12.0405 66.2771 12.0405C67.0827 12.0405 67.5364 11.4479 67.5364 10.4201Z" fill="white"/>
<path d="M69.4724 11.439C69.4724 10.5964 70.102 10.1057 71.2224 10.0316L72.5002 9.95754V9.55013C72.5002 9.05013 72.1761 8.77235 71.5372 8.77235C71.0187 8.77235 70.6576 8.9668 70.5557 9.29087H69.6576C69.7502 8.48532 70.5094 7.9668 71.5835 7.9668C72.7594 7.9668 73.4261 8.55013 73.4261 9.55013V12.7631H72.528V12.1057H72.4539C72.1483 12.5872 71.6113 12.8742 71.0372 12.8464C70.2595 12.9298 69.5557 12.3649 69.4724 11.5779C69.4724 11.5316 69.4724 11.4853 69.4724 11.439ZM72.4909 11.0409V10.652L71.3428 10.7261C70.6946 10.7724 70.3983 10.9853 70.3983 11.402C70.3983 11.8186 70.7687 12.0686 71.2687 12.0686C71.8798 12.1335 72.4261 11.689 72.4817 11.0779C72.4817 11.0686 72.4817 11.0501 72.4817 11.0409H72.4909Z" fill="white"/>
<path d="M74.6382 10.4205C74.6382 8.9298 75.4067 7.99461 76.5919 7.99461C77.1937 7.96683 77.7585 8.29091 78.0363 8.81868H78.1011V6.23535H79.0271V12.7724H78.1382V12.0316H78.0641C77.7585 12.5594 77.1937 12.8742 76.5826 12.8557C75.3882 12.8557 74.6289 11.9113 74.6289 10.4205H74.6382ZM75.5919 10.4205C75.5919 11.4205 76.0641 12.0224 76.8511 12.0224C77.6382 12.0224 78.1197 11.4113 78.1197 10.4298C78.1197 9.44831 77.6289 8.82794 76.8511 8.82794C76.0734 8.82794 75.5919 9.4298 75.5919 10.4205Z" fill="white"/>
<path d="M82.8713 10.4207C82.7509 9.19843 83.6491 8.10584 84.8806 7.99473C86.112 7.88362 87.1954 8.7725 87.3065 10.004C87.3158 10.1429 87.3158 10.291 87.3065 10.4299C87.4269 11.6521 86.5287 12.7447 85.3065 12.8651C84.0843 12.9855 82.9917 12.0873 82.8713 10.8651C82.8528 10.7169 82.8528 10.5781 82.8713 10.4299V10.4207ZM86.3528 10.4207C86.3528 9.40213 85.8991 8.80028 85.0935 8.80028C84.288 8.80028 83.8343 9.39288 83.8343 10.4207C83.8343 11.4484 84.288 12.041 85.0935 12.041C85.8991 12.041 86.3528 11.4484 86.3528 10.4207Z" fill="white"/>
<path d="M88.5566 8.06886H89.4548V8.81886H89.5196C89.7603 8.27256 90.3252 7.92997 90.927 7.97627C91.7696 7.91145 92.5011 8.54108 92.5659 9.38367C92.5659 9.49479 92.5659 9.6059 92.5566 9.72627V12.7726H91.6307V9.95775C91.6307 9.19849 91.3066 8.82812 90.6122 8.82812C90.0196 8.80034 89.5103 9.2633 89.4826 9.8559C89.4826 9.91145 89.4826 9.96701 89.4826 10.0226V12.7726H88.5566V8.06886Z" fill="white"/>
<path d="M97.7965 6.90234V8.09679H98.815V8.87457H97.7965V11.2912C97.7965 11.782 98.0002 12.0042 98.4632 12.0042C98.5835 12.0042 98.7039 12.0042 98.815 11.9857V12.7635C98.6484 12.7912 98.4817 12.8098 98.3058 12.8098C97.278 12.8098 96.8613 12.4486 96.8613 11.5412V8.88382H96.1113V8.10605H96.8613V6.9116H97.7873L97.7965 6.90234Z" fill="white"/>
<path d="M100.084 6.23535H101.001V8.82794H101.075C101.325 8.27239 101.899 7.93906 102.51 7.98535C103.362 7.93906 104.093 8.59646 104.14 9.44831C104.14 9.54091 104.14 9.64276 104.13 9.73535V12.7724H103.204V9.96683C103.204 9.21683 102.853 8.8372 102.195 8.8372C101.593 8.79091 101.056 9.23535 101.01 9.84646C101.01 9.91128 101.01 9.96683 101.01 10.0316V12.7816H100.084V6.24461V6.23535Z" fill="white"/>
<path d="M109.537 11.5043C109.277 12.3932 108.416 12.9673 107.5 12.8655C106.324 12.8932 105.342 11.9673 105.305 10.7821C105.305 10.6617 105.305 10.5506 105.324 10.4303C105.166 9.24508 106 8.15249 107.185 7.99508C107.287 7.98582 107.389 7.97656 107.49 7.97656C108.796 7.97656 109.592 8.87471 109.592 10.3469V10.671H106.268V10.7266C106.213 11.4117 106.722 12.0136 107.407 12.0692C107.444 12.0692 107.49 12.0692 107.527 12.0692C107.981 12.1247 108.426 11.9025 108.648 11.4951H109.546L109.537 11.5043ZM106.277 9.98582H108.657C108.703 9.35619 108.231 8.81915 107.611 8.77286C107.574 8.77286 107.537 8.77286 107.5 8.77286C106.833 8.77286 106.287 9.30064 106.277 9.95804C106.277 9.9673 106.277 9.97656 106.277 9.98582Z" fill="white"/>
</g>
<defs>
<clipPath id="clip0_4766_2013">
<rect width="125" height="37.037" fill="white" transform="translate(0 0.799805)"/>
</clipPath>
</defs>
</svg>
