<svg width="18" height="18" viewBox="0 0 18 18" fill="none" xmlns="http://www.w3.org/2000/svg">
<path d="M14.5643 8.99941V8.94316C14.5643 8.88691 14.5643 8.83066 14.5643 8.83066V8.77441C14.5643 8.71816 14.508 8.66191 14.4518 8.60566L10.8518 5.00566C10.6268 4.78066 10.2893 4.78066 10.0643 5.00566C9.83925 5.23066 9.83925 5.56816 10.0643 5.79316L12.708 8.43691H3.98926C3.65176 8.43691 3.42676 8.66191 3.42676 8.99941C3.42676 9.33691 3.65176 9.56191 3.98926 9.56191H12.6518L10.008 12.2057C9.783 12.4307 9.783 12.7682 10.008 12.9932C10.1205 13.1057 10.2893 13.1619 10.4018 13.1619C10.5143 13.1619 10.683 13.1057 10.7955 12.9932L14.3955 9.39316C14.4518 9.33691 14.508 9.28066 14.508 9.22441C14.5643 9.11191 14.5643 9.05566 14.5643 8.99941Z" fill="#AEE656"/>
</svg>
