<svg width="60" height="60" viewBox="0 0 60 60" fill="none" xmlns="http://www.w3.org/2000/svg">
<mask id="mask0_4766_1659" style="mask-type:luminance" maskUnits="userSpaceOnUse" x="0" y="21" width="34" height="39">
<path d="M33.25 21.75V58.9482H0.75V21.75H33.25Z" fill="white" stroke="white" stroke-width="1.5"/>
</mask>
<g mask="url(#mask0_4766_1659)">
<path d="M2.48956 41.484C2.80852 41.1771 3.15469 40.8975 3.52202 40.648C4.08435 40.2671 4.81599 40.258 5.39797 40.6087C6.1281 41.0486 6.9852 41.3011 7.89975 41.3011C8.8143 41.3011 9.66989 41.0486 10.4 40.6087C10.982 40.2595 11.7136 40.2686 12.276 40.648C13.1935 41.2708 13.972 42.0826 14.554 43.0289M20.9543 41.2467C21.1992 41.032 21.4577 40.8325 21.7283 40.648C22.2906 40.2671 23.0223 40.258 23.6043 40.6087C24.3344 41.0486 25.1915 41.3011 26.106 41.3011C27.0206 41.3011 27.8762 41.0486 28.6063 40.6087C29.1883 40.2595 29.9199 40.2686 30.4823 40.648C30.7408 40.8234 30.9887 41.0139 31.2245 41.2179M12.1656 38.8915C12.3138 38.7736 12.468 38.6617 12.6252 38.5544C13.186 38.1735 13.9191 38.1644 14.5011 38.5136C15.2312 38.952 16.0884 39.2059 17.0029 39.2059C17.9174 39.2059 18.773 38.9535 19.5032 38.5136C20.0852 38.1644 20.8183 38.1735 21.3806 38.5544C21.5288 38.6557 21.6754 38.7615 21.816 38.8719M11.0198 53.4336C4.83715 51.0361 0.453369 45.0303 0.453369 37.9996C0.453369 28.8602 7.86196 21.4531 16.9999 21.4531C26.1378 21.4531 33.5464 28.8617 33.5464 37.9996C33.5464 40.769 32.8661 43.3796 31.6629 45.6743M7.89824 30.1496C10.0811 30.1496 11.8512 32.1647 11.8512 34.6513C11.8512 37.138 10.0811 39.153 7.89824 39.153C5.71542 39.153 3.94528 37.138 3.94528 34.6513C3.94528 32.1647 5.71542 30.1496 7.89824 30.1496ZM26.1045 30.1496C28.2874 30.1496 30.0575 32.1647 30.0575 34.6513C30.0575 37.138 28.2874 39.153 26.1045 39.153C23.9217 39.153 22.1516 37.138 22.1516 34.6513C22.1516 32.1647 23.9217 30.1496 26.1045 30.1496ZM17.0014 28.056C19.1842 28.056 20.9543 30.071 20.9543 32.5577C20.9543 35.0444 19.1842 37.0594 17.0014 37.0594C14.8186 37.0594 13.0484 35.0444 13.0484 32.5577C13.0484 30.071 14.8186 28.056 17.0014 28.056ZM22.2045 48.9757C24.1908 46.229 27.4272 48.1141 27.2186 51.0164C27.0297 53.6527 22.2045 56.3994 22.2045 56.3994C22.2045 56.3994 17.3793 53.6527 17.1903 51.0164C16.9817 48.1141 20.2182 46.229 22.2045 48.9757ZM14.4679 49.4685C15.4761 45.1966 19.7571 42.5497 24.029 43.558C28.301 44.5662 30.9479 48.8472 29.9396 53.1191C28.9313 57.3911 24.6503 60.038 20.3784 59.0297C16.1065 58.0214 13.4596 53.7404 14.4679 49.4685Z" stroke="#84B23B" stroke-width="1.5" stroke-linecap="round" stroke-linejoin="round"/>
</g>
</svg>
