<svg width="61" height="61" viewBox="0 0 61 61" fill="none" xmlns="http://www.w3.org/2000/svg">
<path d="M36.1848 44.7266L39.4075 42.348M35.1504 35.1781C34.3281 35.3956 33.4555 35.4132 32.6073 35.2121L28.3203 34.2008C26.4663 33.7631 24.5145 34.0948 22.9093 35.121L19.8374 37.0837C18.6277 37.8558 18.3314 39.4936 19.1918 40.6422C19.9516 41.6548 21.3557 41.928 22.4403 41.2742L24.5553 39.9979C25.5788 39.3794 26.8891 39.5249 27.7522 40.3526L34.0032 46.34M6.84053 46.3373L9.52907 47.8909M8.25412 35.4717L17.713 33.233C19.1143 33.0509 20.5293 33.0359 21.9293 33.1868M13.9221 53.2707C14.039 53.6268 14.2823 53.9422 14.6316 54.1433C15.3846 54.5783 16.3483 54.32 16.7832 53.567L19.0436 49.6524C19.4786 48.8994 19.2203 47.9357 18.4673 47.5008C18.2417 47.3703 17.997 47.3024 17.7537 47.2915M17.0265 55.0717C17.1502 55.2348 17.3079 55.3775 17.4968 55.4862C18.2498 55.9212 19.2135 55.6629 19.6485 54.9099L21.4413 51.8055C21.8763 51.0524 21.618 50.0888 20.865 49.6538C20.691 49.5532 20.5062 49.4893 20.3186 49.4608M31.4805 48.3177C32.1275 48.8994 33.3209 48.9851 33.9027 48.3367C34.4844 47.6897 34.4314 46.6934 33.7844 46.1117M29.5994 50.9274C30.2463 51.5091 31.3867 51.52 31.9685 50.873C32.5502 50.226 32.4972 49.2297 31.8502 48.648L28.0118 45.1983M29.5994 50.9274C30.2463 51.5091 30.2994 52.5055 29.7176 53.1524C29.1359 53.7994 28.1396 53.8524 27.4926 53.2707L23.6541 49.821M29.5994 50.9274L25.7609 47.4777M25.1166 55.3693L25.3205 55.5515C25.9675 56.1332 26.9638 56.0802 27.5456 55.4332C28.1273 54.7862 28.0743 53.7899 27.4273 53.2082L26.2856 52.182M4.37082 33.5334L7.3883 33.9222C7.82732 33.9792 8.13723 34.3802 8.08014 34.8192L6.54694 46.7315C6.48985 47.1705 6.08888 47.4804 5.64985 47.4233L1.40771 46.8769M41.3662 29.4707L35.0784 32.9653C34.6149 33.2222 34.4572 33.8121 34.7277 34.266L40.079 43.2424C40.3386 43.6787 40.8972 43.8282 41.3417 43.5822L44.2423 41.9701M12.2285 52.0025C12.9815 52.4375 13.9452 52.1792 14.3801 51.4262L16.173 48.3218C16.6079 47.5688 16.3497 46.6051 15.5966 46.1701C14.8436 45.7352 13.8799 45.9934 13.445 46.7464L11.6522 49.8509C11.2172 50.6039 11.4755 51.5676 12.2285 52.0025ZM20.5809 56.4445C21.3339 56.8794 22.2976 56.6212 22.7326 55.8682L23.7792 54.055C24.2141 53.302 23.9559 52.3383 23.2029 51.9033C22.4498 51.4684 21.4862 51.7266 21.0512 52.4796L20.0046 54.2928C19.5697 55.0458 19.8279 56.0095 20.5809 56.4445Z" stroke="#84B23B" stroke-width="1.5" stroke-linecap="round" stroke-linejoin="round"/>
</svg>
