<svg width="16" height="25" viewBox="0 0 16 25" fill="none" xmlns="http://www.w3.org/2000/svg">
<mask id="mask0_4766_1988" style="mask-type:luminance" maskUnits="userSpaceOnUse" x="0" y="4" width="16" height="17">
<path d="M16 4.56982H0V20.5698H16V4.56982Z" fill="white"/>
</mask>
<g mask="url(#mask0_4766_1988)">
<path d="M13.334 7.23682H2.66732C1.93398 7.23682 1.34065 7.83682 1.34065 8.57015L1.33398 16.5702C1.33398 17.3035 1.93398 17.9035 2.66732 17.9035H13.334C14.0673 17.9035 14.6673 17.3035 14.6673 16.5702V8.57015C14.6673 7.83682 14.0673 7.23682 13.334 7.23682ZM13.0673 10.0701L8.35398 13.0168C8.14065 13.1501 7.86065 13.1501 7.64732 13.0168L2.93398 10.0701C2.76732 9.96348 2.66732 9.78348 2.66732 9.59015C2.66732 9.14348 3.15398 8.87682 3.53398 9.11015L8.00065 11.9035L12.4673 9.11015C12.8473 8.87682 13.334 9.14348 13.334 9.59015C13.334 9.78348 13.234 9.96348 13.0673 10.0701Z" fill="#B2B2B2"/>
</g>
</svg>
