<svg width="12" height="13" viewBox="0 0 12 13" fill="none" xmlns="http://www.w3.org/2000/svg">
<mask id="mask0_4766_2067" style="mask-type:luminance" maskUnits="userSpaceOnUse" x="0" y="0" width="12" height="13">
<path d="M12 0.5H0V12.5H12V0.5Z" fill="white"/>
</mask>
<g mask="url(#mask0_4766_2067)">
<path d="M7.82697 2.84352H9.13138C9.27538 2.84352 9.39178 2.72712 9.39178 2.58312V0.825117C9.39178 0.688317 9.28617 0.574317 9.15057 0.564717C8.73537 0.534717 7.92417 0.495117 7.34097 0.495117C5.73897 0.495117 4.69617 1.45512 4.69617 3.20112V4.93152H2.86977C2.72578 4.93152 2.60938 5.04792 2.60938 5.19192V7.01832C2.60938 7.16232 2.72578 7.27872 2.86977 7.27872H4.69617V12.2371C4.69617 12.3811 4.81258 12.4975 4.95658 12.4975H6.78297C6.92697 12.4975 7.04338 12.3811 7.04338 12.2371V7.27872H8.92858C9.06177 7.27872 9.17338 7.17912 9.18778 7.04592L9.39057 5.21952C9.40737 5.06472 9.28618 4.93032 9.13138 4.93032H7.04338V3.62592C7.04338 3.19392 7.39377 2.84352 7.82577 2.84352H7.82697Z" fill="white"/>
</g>
</svg>
