<svg width="60" height="61" viewBox="0 0 60 61" fill="none" xmlns="http://www.w3.org/2000/svg">
<mask id="mask0_4766_1648" style="mask-type:luminance" maskUnits="userSpaceOnUse" x="0" y="28" width="34" height="33">
<path d="M33.9987 28.375H0V60.4147H33.9987V28.375Z" fill="white"/>
</mask>
<g mask="url(#mask0_4766_1648)">
<path d="M13.3661 29.8919C14.5096 29.617 15.7023 29.4735 16.9281 29.4735C19.3041 29.4735 21.5527 30.0154 23.5581 30.9836M1.99872 47.9756C3.47958 54.8579 9.60091 60.0163 16.9268 60.0163C21.9963 60.0163 26.488 57.5474 29.2638 53.7463M1.65872 44.9222C1.65606 44.8638 1.65606 44.804 1.65606 44.7456C1.65606 38.623 5.25927 33.3423 10.4602 30.9079M31.7991 48.2253C31.5681 49.2214 31.2387 50.1816 30.823 51.09M26.1799 32.5933C29.8402 35.3823 32.2002 39.7877 32.2002 44.7456C32.2002 44.889 32.1989 45.0298 32.1949 45.1719M11.7233 31.8469C11.6449 32.5388 11.6037 33.2441 11.6037 33.9573C11.6037 35.3239 11.7525 36.6547 12.034 37.9363M20.7491 49.9186C23.076 51.2839 25.727 52.1552 28.5585 52.3876M12.9451 40.8794C14.0913 43.7189 15.9214 46.2078 18.2324 48.1429M27.4296 42.1305C28.8042 43.0801 30.0447 44.2117 31.1152 45.4893M13.9518 39.0998C14.92 38.9417 15.9148 38.8607 16.9281 38.8607C19.1541 38.8607 21.2884 39.2538 23.2659 39.975M2.93505 45.2609C4.76388 43.1478 7.06286 41.4532 9.66997 40.3416M20.5021 47.9623C22.0427 46.2756 23.2766 44.3006 24.108 42.1305M12.4019 53.1406C14.5468 52.466 16.5204 51.4114 18.2483 50.0554M25.3245 34.8923C25.3312 35.0941 25.3338 35.296 25.3338 35.4992C25.3338 36.7583 25.2077 37.9908 24.9673 39.1781M4.67755 53.8671C5.38677 53.9495 6.10794 53.992 6.83973 53.992C7.17044 53.992 7.49849 53.984 7.8252 53.9654M13.3037 38.1422C15.8656 35.1074 19.3891 32.9094 23.4027 32.0169M9.07895 52.3371C8.98731 51.5947 8.94216 50.8363 8.94216 50.0687C8.94216 46.6288 9.88114 43.4108 11.5174 40.6523M9.70981 55.3546C10.0777 56.5964 10.5744 57.7811 11.1814 58.8981M9.36185 52.3119C10.2132 52.3119 10.9025 53.0012 10.9025 53.8525C10.9025 54.7038 10.2132 55.3931 9.36185 55.3931C8.51052 55.3931 7.82122 54.7038 7.82122 53.8525C7.82122 53.0012 8.51052 52.3119 9.36185 52.3119ZM11.8561 37.9974C12.6423 37.672 13.5427 38.0452 13.8695 38.8315C14.1962 39.6177 13.8216 40.5182 13.0354 40.8449C12.2492 41.1716 11.3487 40.7971 11.022 40.0109C10.6953 39.2246 11.0698 38.3241 11.8561 37.9974ZM24.6339 39.1409C25.4852 39.1409 26.1745 39.8302 26.1745 40.6816C26.1745 41.5329 25.4852 42.2221 24.6339 42.2221C23.7826 42.2221 23.0933 41.5329 23.0933 40.6816C23.0933 39.8302 23.7826 39.1409 24.6339 39.1409ZM17.9495 48.7326C18.1447 47.9038 18.9748 47.3912 19.8022 47.5864C20.6309 47.7817 21.1436 48.6117 20.9484 49.4392C20.7531 50.2679 19.9231 50.7806 19.0956 50.5853C18.2669 50.3901 17.7542 49.56 17.9495 48.7326ZM24.9141 30.1748C25.7655 30.1748 26.4548 30.8641 26.4548 31.7154C26.4548 32.5667 25.7655 33.256 24.9141 33.256C24.0628 33.256 23.3735 32.5667 23.3735 31.7154C23.3735 30.8641 24.0628 30.1748 24.9141 30.1748ZM10.7949 29.2252C11.3965 28.6235 12.3714 28.6235 12.973 29.2252C13.5746 29.8268 13.5746 30.8016 12.973 31.4033C12.3714 32.0049 11.3965 32.0049 10.7949 31.4033C10.1933 30.8016 10.1933 29.8268 10.7949 29.2252ZM30.0978 50.9107C30.9491 50.9107 31.6384 51.6 31.6384 52.4513C31.6384 53.3027 30.9491 53.992 30.0978 53.992C29.2465 53.992 28.5572 53.3027 28.5572 52.4513C28.5572 51.6 29.2465 50.9107 30.0978 50.9107ZM30.6145 46.1706C30.9106 45.3724 31.7965 44.9647 32.5947 45.2609C33.3929 45.5571 33.8006 46.4429 33.5045 47.2411C33.2083 48.0393 32.3224 48.4471 31.5242 48.1509C30.726 47.8547 30.3183 46.9688 30.6145 46.1706ZM0.495289 45.901C0.79146 45.1028 1.67731 44.6951 2.47552 44.9913C3.27372 45.2874 3.68145 46.1733 3.38528 46.9715C3.08911 47.7697 2.20325 48.1774 1.40505 47.8813C0.606851 47.5851 0.199117 46.6992 0.495289 45.901Z" stroke="#84B23B" stroke-width="1.5" stroke-linecap="round" stroke-linejoin="round"/>
</g>
</svg>
