<svg width="61" height="62" viewBox="0 0 61 62" fill="none" xmlns="http://www.w3.org/2000/svg">
<path d="M20.7087 57.7377L20.1448 58.8385C19.6476 59.8089 18.6488 60.4181 17.5594 60.4181C16.47 60.4181 15.4712 59.8075 14.974 58.8385L14.4102 57.7377M12.8731 52.3572H22.2429M17.558 52.3572V47.4556M17.558 47.4556L15.2672 44.873M17.558 47.4556L19.8488 44.873M24.4543 52.5457L27.6291 54.9016L30.9016 51.6291L28.5457 48.4543C29.3093 47.2402 29.8759 45.8916 30.2046 44.4508L34.1146 43.8714V39.2432L30.2046 38.6637C29.8759 37.223 29.3093 35.8743 28.5457 34.6603L30.9016 31.4855L27.6291 28.213L24.4543 30.5689C23.2402 29.8053 21.8916 29.2387 20.4508 28.91L19.8714 25H15.2432L14.6637 28.91C13.223 29.2387 11.8743 29.8053 10.6603 30.5689L7.4855 28.213L4.213 31.4855L6.56892 34.6603C5.80533 35.8743 5.23867 37.223 4.91 38.6637L1 39.2432V43.8714L4.91 44.4508C5.23867 45.8916 5.80533 47.2402 6.56892 48.4543L4.213 51.6291L7.4855 54.9016L10.6603 52.5457M27.0738 42.3542C27.0738 37.1479 22.8932 32.9192 17.7067 32.8398C12.4934 32.7605 8.14142 36.9623 8.04508 42.1743C7.98842 45.2753 9.41642 48.0449 11.6661 49.8214C12.4382 50.4306 12.8731 51.3727 12.8731 52.3558V55.4258C12.8731 56.7022 13.9073 57.7363 15.1837 57.7363H19.9337C21.2102 57.7363 22.2443 56.7022 22.2443 55.4258V52.3544C22.2443 51.3486 22.7175 50.4093 23.5023 49.7803C25.6797 48.0364 27.0738 45.3589 27.0738 42.3527V42.3542Z" stroke="#84B23B" stroke-width="1.5" stroke-linecap="round" stroke-linejoin="round"/>
</svg>
