<svg width="10" height="9" viewBox="0 0 10 9" fill="none" xmlns="http://www.w3.org/2000/svg">
<path d="M5.40039 3.15007C5.04237 3.15007 4.69898 3.29226 4.4458 3.54536C4.19262 3.79847 4.05039 4.14177 4.05039 4.49968C4.05039 4.8576 4.19262 5.2009 4.4458 5.454C4.69898 5.70709 5.04237 5.8493 5.40039 5.8493C5.75841 5.8493 6.10181 5.70709 6.35498 5.454C6.60815 5.2009 6.75039 4.8576 6.75039 4.49968C6.75039 4.14177 6.60815 3.79847 6.35498 3.54536C6.10181 3.29226 5.75841 3.15007 5.40039 3.15007ZM5.40039 2.25033C5.99714 2.25033 6.56945 2.48731 6.99137 2.90915C7.41333 3.33099 7.65039 3.90311 7.65039 4.49968C7.65039 5.09626 7.41333 5.6684 6.99137 6.0902C6.56945 6.51205 5.99714 6.74904 5.40039 6.74904C4.80365 6.74904 4.23136 6.51205 3.8094 6.0902C3.38744 5.6684 3.15039 5.09626 3.15039 4.49968C3.15039 3.90311 3.38744 3.33099 3.8094 2.90915C4.23136 2.48731 4.80365 2.25033 5.40039 2.25033ZM8.32539 2.13786C8.32539 2.287 8.26613 2.43004 8.16065 2.53549C8.05517 2.64095 7.91207 2.7002 7.76289 2.7002C7.61372 2.7002 7.47062 2.64095 7.36514 2.53549C7.25966 2.43004 7.20039 2.287 7.20039 2.13786C7.20039 1.98872 7.25966 1.84569 7.36514 1.74023C7.47062 1.63477 7.61372 1.57552 7.76289 1.57552C7.91207 1.57552 8.05517 1.63477 8.16065 1.74023C8.26613 1.84569 8.32539 1.98872 8.32539 2.13786ZM5.40039 0.900718C4.28709 0.900718 4.10529 0.903867 3.58734 0.926811C3.23454 0.943456 2.99784 0.990692 2.77824 1.07617C2.58294 1.15175 2.44209 1.24217 2.29224 1.39243C2.1514 1.52847 2.0431 1.69455 1.97544 1.87829C1.88994 2.09872 1.84269 2.33491 1.82649 2.68716C1.80309 3.18381 1.80039 3.35746 1.80039 4.49968C1.80039 5.61267 1.80354 5.79441 1.82649 6.31221C1.84314 6.66446 1.89039 6.90155 1.97544 7.12063C2.05194 7.31633 2.14194 7.45714 2.29134 7.60649C2.44299 7.75765 2.58384 7.84807 2.77734 7.92275C2.99964 8.00868 3.23634 8.05636 3.58734 8.07256C4.08414 8.09595 4.25784 8.09865 5.40039 8.09865C6.51369 8.09865 6.69549 8.0955 7.21344 8.07256C7.56534 8.05591 7.80249 8.00868 8.02209 7.92365C8.21694 7.84762 8.35869 7.7572 8.50809 7.60784C8.65974 7.45624 8.75019 7.31543 8.82489 7.12198C8.91039 6.9002 8.95809 6.66311 8.97429 6.31221C8.99769 5.81556 9.00039 5.64191 9.00039 4.49968C9.00039 3.3867 8.99724 3.20496 8.97429 2.68716C8.95764 2.33536 8.91039 2.09782 8.82489 1.87829C8.75708 1.69474 8.64899 1.52872 8.50854 1.39243C8.37251 1.25155 8.20637 1.14328 8.02254 1.07572C7.80204 0.990242 7.56534 0.943006 7.21344 0.926811C6.71664 0.903417 6.54294 0.900718 5.40039 0.900718ZM5.40039 0.000976562C6.62304 0.000976562 6.77559 0.00547524 7.25529 0.0279688C7.73454 0.0504623 8.06079 0.125591 8.34789 0.237159C8.64489 0.351426 8.89509 0.506181 9.14529 0.75586C9.37412 0.98075 9.55119 1.25278 9.66414 1.55303C9.77529 1.8396 9.85089 2.1662 9.87339 2.64532C9.89454 3.12488 9.90039 3.27739 9.90039 4.49968C9.90039 5.72198 9.89589 5.87449 9.87339 6.35405C9.85089 6.83316 9.77529 7.15932 9.66414 7.44634C9.55151 7.74676 9.37439 8.01884 9.14529 8.24351C8.92029 8.47218 8.64818 8.6492 8.34789 8.76221C8.06124 8.87333 7.73454 8.94891 7.25529 8.9714C6.77559 8.99255 6.62304 8.99839 5.40039 8.99839C4.17774 8.99839 4.02519 8.99389 3.54549 8.9714C3.06624 8.94891 2.73999 8.87333 2.45289 8.76221C2.15244 8.64952 1.88028 8.47245 1.65549 8.24351C1.42663 8.01866 1.24956 7.74663 1.13664 7.44634C1.02504 7.15977 0.949891 6.83316 0.927391 6.35405C0.906241 5.87449 0.900391 5.72198 0.900391 4.49968C0.900391 3.27739 0.904891 3.12488 0.927391 2.64532C0.949891 2.16575 1.02504 1.84005 1.13664 1.55303C1.24925 1.2526 1.42635 0.980489 1.65549 0.75586C1.88034 0.526979 2.15248 0.349955 2.45289 0.237159C2.73999 0.125591 3.06579 0.0504623 3.54549 0.0279688C4.02519 0.00682486 4.17774 0.000976562 5.40039 0.000976562Z" fill="white"/>
</svg>
