<svg width="12" height="13" viewBox="0 0 12 13" fill="none" xmlns="http://www.w3.org/2000/svg">
<path d="M2.6088 12.2399H0V4.41354H2.6088V12.2399ZM1.3044 3.36954C0.5832 3.36954 0 2.78514 0 2.06514C0 1.34514 0.5844 0.760742 1.3044 0.760742C2.0244 0.760742 2.6088 1.34514 2.6088 2.06514C2.6088 2.78514 2.0244 3.36954 1.3044 3.36954ZM12 12.2399H9.492V8.43114C9.492 7.52274 9.4752 6.35514 8.1876 6.35514C6.9 6.35514 6.6804 7.34394 6.6804 8.36634V12.2411H4.1724V4.40754H6.5796V5.47794H6.6132C6.948 4.86234 7.7664 4.21314 8.988 4.21314C11.5284 4.21314 11.9988 5.83554 11.9988 7.94394V12.2399H12Z" fill="white"/>
</svg>
