<svg width="16" height="25" viewBox="0 0 16 25" fill="none" xmlns="http://www.w3.org/2000/svg">
<mask id="mask0_4766_1996" style="mask-type:luminance" maskUnits="userSpaceOnUse" x="0" y="4" width="16" height="17">
<path d="M16 4.83984H0V20.8398H16V4.83984Z" fill="white"/>
</mask>
<g mask="url(#mask0_4766_1996)">
<path d="M8.00065 6.17285C5.42065 6.17285 3.33398 8.25952 3.33398 10.8395C3.33398 13.6195 6.28065 17.4529 7.49398 18.9129C7.76065 19.2329 8.24732 19.2329 8.51398 18.9129C9.72065 17.4529 12.6673 13.6195 12.6673 10.8395C12.6673 8.25952 10.5807 6.17285 8.00065 6.17285ZM8.00065 12.5062C7.08065 12.5062 6.33398 11.7595 6.33398 10.8395C6.33398 9.91952 7.08065 9.17285 8.00065 9.17285C8.92065 9.17285 9.66732 9.91952 9.66732 10.8395C9.66732 11.7595 8.92065 12.5062 8.00065 12.5062Z" fill="#B2B2B2"/>
</g>
</svg>
