<svg width="100" height="42" viewBox="0 0 100 42" fill="none" xmlns="http://www.w3.org/2000/svg">
<mask id="mask0_4766_1806" style="mask-type:luminance" maskUnits="userSpaceOnUse" x="0" y="0" width="100" height="42">
<path d="M99.9853 0H0.015625V41.1H99.9853V0Z" fill="white"/>
</mask>
<g mask="url(#mask0_4766_1806)">
<path d="M63.914 18.7664L79.7202 9.72564V12.6549L66.4872 20.2321L63.914 18.7664ZM71.2427 10.0995L53.4531 0V2.91729L68.6935 11.5622L67.151 12.448L53.4531 4.70286V7.62015L64.6017 13.9106L63.2272 14.6994L53.4541 9.16177V12.0801L63.2042 17.5917L63.2282 17.5787L63.2841 17.6107L79.7222 8.16402V5.23473L71.2447 10.1005L71.2427 10.0995Z" fill="#71A850"/>
<path d="M24.6761 40.7985L23.7404 38.1722H17.7332L16.7975 40.7985H11.3332V40.4666L19.4537 19.3637H22.0499L30.0795 40.4666V40.7985H24.6761ZM22.2609 33.8842C21.2652 30.835 21.0532 29.7482 20.7213 27.8767C20.2985 29.9602 20.0875 30.9559 19.2118 33.8842H22.2609ZM11.0943 35.9237V35.8477H5.23804V19.6657H0.015625V40.7985H9.34679V40.4666L11.0953 35.9237H11.0943ZM31.573 40.7985V19.4837H33.2036L42.1089 29.7492V19.6657H47.3313V40.9495H45.8217L36.7955 30.504V40.7985H31.573ZM56.7484 19.6957C62.0618 19.6957 65.6237 23.8617 65.6237 30.1411C65.6837 36.5416 62.1518 40.7985 56.7484 40.7985H49.7745V19.6957H56.7484ZM56.6884 35.8167C58.8918 35.8167 60.3713 33.5823 60.3713 30.2021C60.3713 26.8219 58.8918 24.6465 56.6884 24.6465H54.9979V35.8167H56.6884ZM89.0926 34.1262C89.0626 35.4248 90.0283 36.3296 91.4779 36.3296C92.9274 36.3296 93.8022 35.6348 93.8022 34.4271C93.8022 32.7065 91.9307 32.5855 90.8741 32.4946C87.5841 32.2536 84.2931 30.472 84.2931 26.0641C84.2931 21.9281 87.1312 19.3617 91.3569 19.3617C95.5826 19.3617 98.4208 22.1391 98.3008 26.2751H93.4103C93.5013 25.0074 92.6855 24.1016 91.4479 24.1016C90.2103 24.1016 89.4255 24.8264 89.4255 26.0341C89.4255 26.9699 90.1203 27.6337 91.7498 27.8457C95.5836 28.2386 98.9646 29.3553 98.9646 34.4881C98.9646 38.5331 96.0065 41.0995 91.5378 41.0995C87.0692 41.0995 84.0211 38.3221 84.1421 34.1252H89.0926V34.1262ZM77.1692 19.6657V33.5833C77.1692 35.1539 76.3235 36.2097 75.0259 36.2097C73.7283 36.2097 72.8225 35.1529 72.8225 33.5833V19.8826L67.976 22.6919C67.7481 22.9019 67.6001 23.0428 67.6001 23.0428V33.7033C67.6001 38.1112 70.5582 41.0695 74.9959 41.0695C79.4335 41.0695 82.3616 38.1112 82.3616 33.7033V19.6657H77.1692ZM97.657 20.4655C97.657 20.2595 97.709 20.0656 97.812 19.8846C97.9149 19.7037 98.0569 19.5617 98.2378 19.4577C98.4188 19.3537 98.6127 19.3018 98.8216 19.3018C99.0306 19.3018 99.2215 19.3537 99.4025 19.4567C99.5834 19.5597 99.7254 19.7017 99.8293 19.8826C99.9333 20.0636 99.9853 20.2575 99.9853 20.4665C99.9853 20.6754 99.9353 20.8604 99.8353 21.0393C99.7354 21.2183 99.5944 21.3613 99.4145 21.4682C99.2335 21.5752 99.0366 21.6292 98.8216 21.6292C98.6067 21.6292 98.4108 21.5762 98.2308 21.4692C98.0499 21.3623 97.9099 21.2193 97.8089 21.0413C97.708 20.8634 97.658 20.6714 97.658 20.4675L97.657 20.4655ZM97.8479 20.4655C97.8479 20.6404 97.8919 20.8034 97.9789 20.9544C98.0659 21.1043 98.1848 21.2223 98.3358 21.3093C98.4867 21.3962 98.6487 21.4392 98.8216 21.4392C98.9946 21.4392 99.1595 21.3952 99.3105 21.3073C99.4614 21.2193 99.5794 21.1003 99.6664 20.9514C99.7524 20.8024 99.7953 20.6404 99.7953 20.4665C99.7953 20.2925 99.7514 20.1306 99.6644 19.9796C99.5774 19.8286 99.4584 19.7097 99.3075 19.6227C99.1565 19.5357 98.9946 19.4927 98.8216 19.4927C98.6487 19.4927 98.4867 19.5357 98.3378 19.6217C98.1888 19.7077 98.0699 19.8256 97.9809 19.9766C97.8919 20.1276 97.8479 20.2905 97.8479 20.4675V20.4655ZM99.2935 20.1905C99.2935 20.3675 99.2145 20.4875 99.0566 20.5515L99.4235 21.1663H99.0966L98.7997 20.6304H98.6607V21.1663H98.3678V19.7686H98.7737C98.9536 19.7686 99.0846 19.8036 99.1685 19.8736C99.2525 19.9436 99.2935 20.0496 99.2935 20.1905ZM98.6607 20.4055H98.7677C98.8436 20.4055 98.9016 20.3875 98.9406 20.3515C98.9796 20.3155 98.9996 20.2635 98.9996 20.1965C98.9996 20.1226 98.9806 20.0706 98.9426 20.0406C98.9056 20.0116 98.8456 19.9966 98.7637 19.9966H98.6597V20.4055H98.6607Z" fill="white"/>
</g>
</svg>
