<svg width="16" height="25" viewBox="0 0 16 25" fill="none" xmlns="http://www.w3.org/2000/svg">
<mask id="mask0_4766_1980" style="mask-type:luminance" maskUnits="userSpaceOnUse" x="0" y="4" width="16" height="17">
<path d="M16 4.7998H0V20.7998H16V4.7998Z" fill="white"/>
</mask>
<g mask="url(#mask0_4766_1980)">
<path d="M12.8181 14.9743L11.1247 14.7809C10.7181 14.7343 10.3181 14.8743 10.0314 15.1609L8.80473 16.3876C6.91807 15.4276 5.37141 13.8876 4.41141 11.9943L5.64474 10.761C5.93141 10.4743 6.07141 10.0743 6.02474 9.66762L5.83141 7.98762C5.75141 7.31428 5.18474 6.80762 4.50474 6.80762H3.35141C2.59807 6.80762 1.97141 7.43428 2.01807 8.18762C2.37141 13.8809 6.92474 18.4276 12.6114 18.7809C13.3647 18.8276 13.9914 18.2009 13.9914 17.4476V16.2943C13.9981 15.6209 13.4914 15.0543 12.8181 14.9743Z" fill="#B2B2B2"/>
</g>
</svg>
