<svg width="125" height="38" viewBox="0 0 125 38" fill="none" xmlns="http://www.w3.org/2000/svg">
<g clip-path="url(#clip0_4766_2046)">
<path d="M120.37 0.799805H4.62963C2.07276 0.799805 0 2.87256 0 5.42943V33.2072C0 35.7641 2.07276 37.8368 4.62963 37.8368H120.37C122.927 37.8368 125 35.7641 125 33.2072V5.42943C125 2.87256 122.927 0.799805 120.37 0.799805Z" fill="black"/>
<path d="M120.37 1.54055C122.519 1.54055 124.259 3.28129 124.259 5.42943V33.2072C124.259 35.3554 122.519 37.0961 120.37 37.0961H4.62963C2.48148 37.0961 0.740741 35.3554 0.740741 33.2072V5.42943C0.740741 3.28129 2.48148 1.54055 4.62963 1.54055H120.37ZM120.37 0.799805H4.62963C2.08333 0.799805 0 2.88314 0 5.42943V33.2072C0 35.7535 2.08333 37.8368 4.62963 37.8368H120.37C122.917 37.8368 125 35.7535 125 33.2072V5.42943C125 2.88314 122.917 0.799805 120.37 0.799805Z" fill="#A6A6A6"/>
<path d="M43.9075 10.2815C43.9075 11.0593 43.676 11.6797 43.213 12.1334C42.6945 12.6797 42.0093 12.9574 41.176 12.9574C40.3427 12.9574 39.6945 12.6797 39.1297 12.1241C38.5649 11.5685 38.2871 10.8741 38.2871 10.0593C38.2871 9.24447 38.5649 8.55002 39.1297 7.99447C39.6945 7.43891 40.3704 7.16113 41.176 7.16113C41.5741 7.16113 41.9538 7.23521 42.3149 7.39261C42.676 7.55002 42.963 7.75373 43.1853 8.01298L42.6945 8.50373C42.3241 8.06854 41.8241 7.84632 41.176 7.84632C40.5927 7.84632 40.0834 8.05002 39.6575 8.46669C39.2316 8.8741 39.0186 9.41113 39.0186 10.0685C39.0186 10.7259 39.2316 11.263 39.6575 11.6704C40.0834 12.0778 40.5927 12.2908 41.176 12.2908C41.7964 12.2908 42.3149 12.0871 42.7316 11.6704C43.0001 11.4019 43.1575 11.0222 43.1945 10.5408H41.176V9.8741H43.8704C43.8982 10.0222 43.9075 10.1611 43.9075 10.2908V10.2815Z" fill="white" stroke="white" stroke-width="0.185185" stroke-miterlimit="10"/>
<path d="M48.1763 7.96643H45.6485V9.72569H47.9263V10.3924H45.6485V12.1516H48.1763V12.8368H44.9355V7.28125H48.1763V7.96643Z" fill="white" stroke="white" stroke-width="0.185185" stroke-miterlimit="10"/>
<path d="M51.1845 12.8368H50.4716V7.96643H48.916V7.28125H52.7308V7.96643H51.1753V12.8368H51.1845Z" fill="white" stroke="white" stroke-width="0.185185" stroke-miterlimit="10"/>
<path d="M55.5 12.8368V7.28125H56.213V12.8368H55.5Z" fill="white" stroke="white" stroke-width="0.185185" stroke-miterlimit="10"/>
<path d="M59.3796 12.8368H58.6666V7.96643H57.1111V7.28125H60.9259V7.96643H59.3703V12.8368H59.3796Z" fill="white" stroke="white" stroke-width="0.185185" stroke-miterlimit="10"/>
<path d="M68.1565 12.1148C67.6102 12.6797 66.9342 12.9574 66.1194 12.9574C65.3046 12.9574 64.6287 12.6797 64.0824 12.1148C63.5361 11.55 63.2676 10.8648 63.2676 10.0593C63.2676 9.25373 63.5361 8.55928 64.0824 8.00373C64.6287 7.43891 65.3046 7.16113 66.1194 7.16113C66.9342 7.16113 67.6009 7.43891 68.1565 8.00373C68.7028 8.56854 68.9805 9.25373 68.9805 10.0593C68.9805 10.8648 68.7028 11.5593 68.1657 12.1148H68.1565ZM64.6102 11.6519C65.0176 12.0685 65.5268 12.2722 66.1194 12.2722C66.712 12.2722 67.2213 12.0685 67.6287 11.6519C68.0361 11.2352 68.2491 10.7074 68.2491 10.0593C68.2491 9.41113 68.0454 8.88335 67.6287 8.46669C67.2213 8.05002 66.712 7.84632 66.1194 7.84632C65.5268 7.84632 65.0176 8.05002 64.6102 8.46669C64.2028 8.88335 63.9898 9.41113 63.9898 10.0593C63.9898 10.7074 64.1935 11.2352 64.6102 11.6519Z" fill="white" stroke="white" stroke-width="0.185185" stroke-miterlimit="10"/>
<path d="M69.9824 12.8368V7.28125H70.8528L73.5565 11.6053H73.5843L73.5565 10.5313V7.28125H74.2695V12.8368H73.5287L70.7046 8.30903H70.6769L70.7046 9.3831V12.8461H69.9917L69.9824 12.8368Z" fill="white" stroke="white" stroke-width="0.185185" stroke-miterlimit="10"/>
<path d="M63.0926 20.9388C60.9167 20.9388 59.1389 22.5962 59.1389 24.874C59.1389 27.1517 60.9167 28.8091 63.0926 28.8091C65.2685 28.8091 67.0463 27.1425 67.0463 24.874C67.0463 22.6054 65.2685 20.9388 63.0926 20.9388ZM63.0926 27.2628C61.8981 27.2628 60.8704 26.2814 60.8704 24.874C60.8704 23.4665 61.8981 22.4851 63.0926 22.4851C64.287 22.4851 65.3148 23.4573 65.3148 24.874C65.3148 26.2906 64.287 27.2628 63.0926 27.2628ZM54.463 20.9388C52.287 20.9388 50.5093 22.5962 50.5093 24.874C50.5093 27.1517 52.287 28.8091 54.463 28.8091C56.6389 28.8091 58.4167 27.1425 58.4167 24.874C58.4167 22.6054 56.6389 20.9388 54.463 20.9388ZM54.463 27.2628C53.2685 27.2628 52.2407 26.2814 52.2407 24.874C52.2407 23.4665 53.2685 22.4851 54.463 22.4851C55.6574 22.4851 56.6852 23.4573 56.6852 24.874C56.6852 26.2906 55.6574 27.2628 54.463 27.2628ZM44.2037 22.1517V23.8184H48.2037C48.0833 24.7628 47.7685 25.448 47.2963 25.9202C46.713 26.5036 45.8056 27.1425 44.213 27.1425C41.75 27.1425 39.8241 25.161 39.8241 22.698C39.8241 20.2351 41.75 18.2536 44.213 18.2536C45.537 18.2536 46.5093 18.7721 47.2222 19.448L48.3981 18.2721C47.3981 17.3184 46.0741 16.5869 44.2037 16.5869C40.8333 16.5869 38 19.3277 38 22.7073C38 26.0869 40.8333 28.8277 44.2037 28.8277C46.0278 28.8277 47.3981 28.2351 48.4722 27.1147C49.5741 26.0128 49.9167 24.4573 49.9167 23.2073C49.9167 22.8184 49.8889 22.4573 49.8241 22.161H44.2037V22.1517ZM86.1574 23.448C85.8333 22.5684 84.8333 20.9388 82.787 20.9388C80.7407 20.9388 79.0741 22.5314 79.0741 24.874C79.0741 27.0777 80.7407 28.8091 82.9815 28.8091C84.787 28.8091 85.8333 27.7073 86.2593 27.0684L84.9167 26.1702C84.4722 26.8277 83.8611 27.2628 82.9815 27.2628C82.1019 27.2628 81.4722 26.8554 81.0741 26.0684L86.3426 23.8925L86.1667 23.448H86.1574ZM80.787 24.7628C80.7407 23.2443 81.963 22.4665 82.8426 22.4665C83.5278 22.4665 84.1111 22.8091 84.3056 23.2999L80.787 24.7628ZM76.5093 28.5777H78.2407V17.0036H76.5093V28.5777ZM73.6759 21.8184H73.6204C73.2315 21.3554 72.4907 20.9388 71.5463 20.9388C69.5741 20.9388 67.7685 22.6702 67.7685 24.8925C67.7685 27.1147 69.5741 28.8184 71.5463 28.8184C72.4907 28.8184 73.2315 28.4017 73.6204 27.9202H73.6759V28.4851C73.6759 29.9943 72.8704 30.7999 71.5741 30.7999C70.5185 30.7999 69.8611 30.0406 69.5926 29.4017L68.0833 30.0314C68.5185 31.0777 69.6667 32.3554 71.5741 32.3554C73.6019 32.3554 75.3148 31.161 75.3148 28.2536V21.1795H73.6759V21.8184ZM71.6852 27.2628C70.4907 27.2628 69.4907 26.2628 69.4907 24.8925C69.4907 23.5221 70.4907 22.4943 71.6852 22.4943C72.8796 22.4943 73.787 23.5128 73.787 24.8925C73.787 26.2721 72.8611 27.2628 71.6852 27.2628ZM94.2685 17.0036H90.1296V28.5777H91.8611V24.1888H94.2778C96.1944 24.1888 98.0741 22.7999 98.0741 20.5962C98.0741 18.3925 96.1944 17.0036 94.2778 17.0036H94.2685ZM94.3056 22.5777H91.8518V18.6054H94.3056C95.6018 18.6054 96.3333 19.6795 96.3333 20.5869C96.3333 21.4943 95.6018 22.5684 94.3056 22.5684V22.5777ZM104.991 20.9202C103.741 20.9202 102.444 21.4758 101.907 22.6888L103.444 23.3277C103.769 22.6888 104.38 22.4758 105.019 22.4758C105.907 22.4758 106.824 23.0128 106.833 23.9665V24.0869C106.519 23.911 105.852 23.6425 105.028 23.6425C103.37 23.6425 101.694 24.5499 101.694 26.2443C101.694 27.7906 103.046 28.7906 104.565 28.7906C105.722 28.7906 106.37 28.2721 106.769 27.661H106.824V28.5591H108.491V24.124C108.491 22.0684 106.954 20.9202 104.972 20.9202H104.991ZM104.778 27.2628C104.213 27.2628 103.426 26.9758 103.426 26.2814C103.426 25.3925 104.407 25.0499 105.259 25.0499C106.019 25.0499 106.38 25.2165 106.833 25.4388C106.704 26.5128 105.778 27.2721 104.778 27.2721V27.2628ZM114.574 21.1702L112.593 26.1888H112.537L110.481 21.1702H108.62L111.704 28.1888L109.944 32.0869H111.75L116.5 21.1702H114.583H114.574ZM99.0185 28.5777H100.75V17.0036H99.0185V28.5777Z" fill="white"/>
<path d="M19.1853 18.7817L9.32422 29.2447C9.62977 30.3836 10.6668 31.2169 11.8983 31.2169C12.389 31.2169 12.852 31.0873 13.2501 30.8465L13.2779 30.828L24.3705 24.4299L19.1761 18.7725L19.1853 18.7817Z" fill="#EA4335"/>
<path d="M29.1573 17.0038H29.1481L24.361 14.2168L18.9629 19.0224L24.3796 24.439L29.1481 21.689C29.9814 21.2353 30.5462 20.3557 30.5462 19.3464C30.5462 18.3372 29.9907 17.4575 29.1573 17.0131V17.0038Z" fill="#FBBC04"/>
<path d="M9.32501 9.39258C9.26946 9.6148 9.23242 9.83702 9.23242 10.0778V28.5685C9.23242 28.8092 9.2602 29.0315 9.32501 29.2537L19.5195 19.0592L9.32501 9.39258Z" fill="#4285F4"/>
<path d="M19.2592 19.3185L24.361 14.2167L13.2777 7.79076C12.8795 7.55002 12.4073 7.41113 11.898 7.41113C10.6666 7.41113 9.62953 8.25373 9.32397 9.38336L19.2592 19.3093V19.3185Z" fill="#34A853"/>
</g>
<defs>
<clipPath id="clip0_4766_2046">
<rect width="125" height="37.037" fill="white" transform="translate(0 0.799805)"/>
</clipPath>
</defs>
</svg>
