<svg width="60" height="61" viewBox="0 0 60 61" fill="none" xmlns="http://www.w3.org/2000/svg">
<mask id="mask0_4766_1679" style="mask-type:luminance" maskUnits="userSpaceOnUse" x="0" y="27" width="34" height="33">
<path d="M34 27.0625H0V59.6434H34V27.0625Z" fill="white"/>
</mask>
<g mask="url(#mask0_4766_1679)">
<path d="M28.8038 37.7082C25.1855 33.4981 19.7765 31.8449 14.4592 33.0616M24.0617 34.0594L20.6789 35.7775M22.0992 33.297L20.1265 31.01M5.04381 37.7515C3.20604 42.9898 4.47874 48.5006 8.19246 52.4968M4.25474 43.6834L7.43393 45.7528M4.57546 45.763L3.58149 48.6151M16.9613 58.3067C22.4161 57.2783 26.5524 53.4208 28.1572 48.2078M22.4925 56.0247L22.6961 52.2359M24.1342 54.7062L27.1009 54.1411M26.6173 34.7937C27.0029 32.2025 24.3799 30.0606 23.7053 29.5108C21.0009 27.3026 17.7784 27.4134 16.3734 27.4617C15.0574 27.5076 12.0984 27.6514 9.36461 29.834C7.20867 31.5547 6.28087 33.6738 5.91434 34.6868C6.94776 34.7835 9.08207 34.1892 10.3675 35.1921C11.7382 36.2611 16.0437 40.825 21.7645 39.2163C23.4699 38.7365 26.2495 37.2666 26.6173 34.795V34.7937ZM3.61203 41.1024C1.17483 42.0646 0.631387 45.4079 0.492663 46.2657C-0.0673221 49.7122 1.63936 52.4472 2.38388 53.6397C3.08132 54.7559 4.68619 57.2465 7.94301 58.523C10.5113 59.5297 12.8098 59.2739 13.87 59.0856C13.4373 58.1412 11.854 56.5911 12.0805 54.976C12.3211 53.2541 14.1207 47.2431 9.86732 43.0942C8.59845 41.8571 5.93724 40.1848 3.61331 41.1024H3.61203ZM20.5783 57.8714C22.6299 59.5005 25.7964 58.3003 26.6096 57.9923C29.8741 56.754 31.3899 53.9082 32.0504 52.6674C32.6689 51.5054 34.0231 48.8696 33.5 45.4117C33.0876 42.6844 31.7169 40.8224 31.0233 39.9977C30.4226 40.844 29.8703 42.9911 28.3596 43.602C26.7484 44.2549 20.6432 45.7019 19.1758 51.4596C18.738 53.1764 18.6209 56.3187 20.5783 57.8727V57.8714Z" stroke="#84B23B" stroke-width="1.5" stroke-linecap="round" stroke-linejoin="round"/>
</g>
</svg>
