<svg width="12" height="9" viewBox="0 0 12 9" fill="none" xmlns="http://www.w3.org/2000/svg">
<path d="M11.7492 1.6116C11.6112 1.0944 11.2044 0.688803 10.6884 0.550803C9.7524 0.300003 6 0.300003 6 0.300003C6 0.300003 2.2476 0.300003 1.3116 0.550803C0.7944 0.688803 0.3888 1.0956 0.2508 1.6116C0 2.5476 0 4.5 0 4.5C0 4.5 0 6.4524 0.2508 7.3884C0.3888 7.9056 0.7956 8.3112 1.3116 8.4492C2.2476 8.7 6 8.7 6 8.7C6 8.7 9.7524 8.7 10.6884 8.4492C11.2056 8.3112 11.6112 7.9044 11.7492 7.3884C12 6.4524 12 4.5 12 4.5C12 4.5 12 2.5476 11.7492 1.6116ZM4.7988 6.3V2.7L7.9164 4.5L4.7988 6.3Z" fill="white"/>
</svg>
